<?xml version="1.0" encoding="utf-8"?>
<svg version="1.1" id="Layer_1" xmlns="http://www.w3.org/2000/svg" xmlns:xlink="http://www.w3.org/1999/xlink" x="0px" y="0px"
	 viewBox="0 0 494.6 552.1" style="enable-background:new 0 0 494.6 552.1;" xml:space="preserve">
<style type="text/css">
	.st0{fill:#FFFFFF;}
</style>
<g id="Layer_1_00000181050885524217163750000000222831059236394649_">
	<g>
		<path class="st0" d="M192.3,49.3c0.8-4.8,1.7-9.7,2.5-14.5c0.8-4.6,1.4-9.2,2.2-13.8c0.9-5.1,3.2-7.7,7.2-8.3c3.9-0.6,6.6,1,9,5.5
			c3.7,7.1,7.4,14.2,11.1,21.2c0.8,1.4,1.6,2.8,3.4,4.2c0.4-1.6,0.8-3.3,1.1-4.9c1.4-8.5,2.7-17.1,4.1-25.6c0.5-2.9,1.3-5.7,4.7-6.3
			c3.7-0.6,7.7-0.2,10,2.9c1.2,1.7,1.1,4.8,0.8,7.1c-1.8,11.5-4,22.9-6,34.4c-0.9,5.4-1.8,10.8-2.8,16.2c-0.9,4.9-3.5,7.9-7.3,8.4
			c-3.5,0.5-6.6-1.4-9-5.8c-3.8-7-7.5-14.1-11.2-21.2c-0.7-1.4-1.6-2.7-2.5-4.1c-0.3,0.1-0.7,0.1-1,0.2c-1.3,7.5-2.6,15-3.9,22.4
			c-0.4,2.5-0.7,5-1.3,7.4c-0.9,3.4-2.6,6.1-6.5,6.6c-3.7,0.5-6.6-0.9-8.4-4.1c-8.8-16.2-17.6-32.4-26.2-48.8
			c-2.2-4.1-0.7-6.9,4.2-9.4c5-2.6,7.5-2.1,9.9,2.4c4.2,7.8,8.2,15.6,12.2,23.4c0.8,1.5,1.6,2.9,2.4,4.3
			C191.5,49.3,191.9,49.3,192.3,49.3z"/>
		<path class="st0" d="M277.5,74.9c0.4-2.6,0.4-5,1-7.2c4.6-16.1,9.3-32.2,14-48.3c1.7-5.9,4-7.1,10-5.5c5.8,1.6,11.5,3.3,17.2,5.1
			c16.4,5.4,26.2,22.5,22.3,39c-4,17-20.1,28.6-37.2,25.8c-7.8-1.3-15.4-4.1-23-6.4C280.5,77.2,279.3,76.1,277.5,74.9z M296,65.1
			c3.7,1.1,6.8,2.2,10,2.9c6.3,1.4,14.2-1.6,17.5-6.9c4-6.2,4.5-12.7,0.6-19.2c-4.1-6.9-11-8.4-18.6-9.8
			C302.4,43.1,299.3,53.8,296,65.1z"/>
		<path class="st0" d="M180.9,537c-18.4,0.1-33.3-14.7-33.5-33.2c-0.2-19.1,15.4-35.6,33.7-35.6c18.1,0,33.1,14.8,33.3,32.9
			C214.6,520.2,199,536.9,180.9,537z M198.1,501.5c0-9.6-7.6-17.4-16.8-17.4c-9.5,0-17.7,8.8-17.7,19.2c-0.1,9.6,7.4,17.5,16.6,17.6
			C190.1,521,198.2,512.3,198.1,501.5z"/>
		<path class="st0" d="M108,444.4c-2,2.7-3.6,4.7-5.5,7.2c2.7,2.2,5,4.1,7.5,6.1c2.1,1.6,4.2,3.3,6.4,4.8c7.3,4.9,4.4,9.7-1,14.4
			c-2.2,1.9-4.7,1.3-6.9-0.3c-3.3-2.5-6.6-5-10-7.5c-1.8-1.4-3.7-2.7-6-4.3c-1.9,2.5-3.6,4.7-5.5,7.2c1.9,1.5,3.4,2.8,4.9,4
			c6.1,4.7,12.2,9.2,18.2,14c3.9,3.1,4.1,6,0.9,10.3c-3.6,4.8-6.1,5.6-10.4,2.5c-10.4-7.7-20.7-15.6-30.9-23.6c-3.8-3-4-5.6-1.1-9.5
			c10.6-14.1,21.3-28.1,32.1-42c3.2-4.2,5.7-4.6,9.8-1.5c10.4,7.7,20.7,15.6,30.9,23.6c3.7,2.9,3.7,5.7,0.6,9.9
			c-3.3,4.5-6.1,5.4-10,2.7c-5.8-4.1-11.4-8.6-17.1-12.9C112.7,447.8,110.6,446.3,108,444.4z"/>
		<path class="st0" d="M144.1,88.4c-0.5,19.3-14.7,32.8-33.8,32.2c-19.2-0.6-34-17-33.4-36.8c0.5-17.6,15.8-31.7,33.6-31.1
			C129.4,53.3,144.6,69.6,144.1,88.4z M111.4,104.5c9.5,0.1,16.6-6.9,16.8-16.5c0.2-10.2-8.6-19.3-18.8-19.3
			c-9.5,0-16.5,7.2-16.5,16.8C92.9,95.8,101.4,104.5,111.4,104.5z"/>
		<path class="st0" d="M392.6,71.4c-1.9,2.5-3.5,4.6-5.5,7.2c2.6,2.1,5,4,7.4,5.9c2.9,2.3,5.8,4.4,8.7,6.7c2.6,2.1,2.9,4.7,1.2,7.5
			c-0.7,1.1-1.5,2.2-2.3,3.2c-3.4,3.7-5.3,4-9.5,1.1c-3.8-2.7-7.4-5.6-11.1-8.4c-1.3-1-2.7-1.9-4.3-3c-1.9,2.5-3.5,4.7-5.5,7.3
			c6.9,5.3,13.4,10.4,20,15.4c0.7,0.5,1.4,1,2,1.5c5.2,4.1,5.5,7.1,1.4,12.1c-3.4,4-6,4.5-10.3,1.3c-9.8-7.4-19.7-14.8-29.3-22.4
			c-5-3.9-5.2-6.4-1.5-11.4c10.2-13.5,20.5-27,30.9-40.4c3.7-4.8,6.1-5.2,10.9-1.6c10,7.4,19.9,15,29.7,22.7
			c4.2,3.2,4.3,6.2,0.9,10.7c-3.4,4.5-6.1,5.2-10.5,2c-6.2-4.5-12.2-9.2-18.3-13.8C396.2,73.9,394.7,72.9,392.6,71.4z"/>
		<path class="st0" d="M271.9,525.6c-4.7,0.4-9.1,0.9-14.3,1.3c0.2,3.6,0.4,6.8,0.6,10.1c0.2,2.9,0.7,6.4-2.5,7.3
			c-3.3,1-7.2,1.1-10.5,0.2c-1.4-0.4-2.6-4-2.8-6.3c-0.9-8.9-1.5-17.9-2.2-26.8c-0.6-8-1.2-15.9-1.8-23.9c-0.4-5.7,1-7.8,6.6-8.4
			c7.3-0.8,14.6-1.5,21.9-1.6c9.3-0.1,16.9,3.8,21.4,12.1c4.4,8.1,4.5,16.5-0.3,24.7c-0.6,1-1.1,2-1.9,3.4c2.2,4.3,4.5,8.7,6.8,13.1
			c3.3,6.6,0,12.2-7.5,12.7c-3.2,0.2-4.8-1.8-6.1-4.2C276.8,534.9,274.4,530.4,271.9,525.6z M256.2,510.9c4.8-0.5,9.1-0.6,13.3-1.4
			c3.9-0.8,6.1-4.3,6-8.1c-0.2-4-3-7.4-7.2-7.6c-4.2-0.2-8.5,0.4-13.3,0.6C255.4,500.2,255.8,505.2,256.2,510.9z"/>
		<path class="st0" d="M435.4,164.2c-1.6-2.6-3-4.8-4.4-7.1c-1-1.5-2-3-3.4-5c-3.2,1.9-6.3,3.7-9.3,5.6c-2.4,1.4-4.9,2.7-7.4,0.7
			c-3-2.3-5.3-5.5-4.9-9.3c0.2-1.8,2.4-3.9,4.2-5.1c10.3-6.8,20.7-13.3,31-19.9c3.8-2.4,7.5-4.9,11.4-7.2c6.1-3.8,8.1-3.3,12.1,2.9
			c3.4,5.3,6.9,10.6,10.1,16c4.9,8.4,5.4,17.2,0.2,25.5c-5,8-12.6,12-22.3,11.7c-1.1,0-2.3,0-3.9,0c-2.7,3.9-5.4,8.1-8.3,12.1
			c-4.2,5.9-11.7,5.3-15-1.2c-1.3-2.6-0.2-4.8,1.2-7C429.6,172.7,432.5,168.5,435.4,164.2z M441.2,143.3c2.6,3.9,4.6,7.5,7.1,10.7
			c2.9,3.6,6.9,4,10.6,1.6c3.4-2.2,4.8-6.1,2.9-10c-1.9-3.8-4.4-7.2-6.8-11.1C450.2,137.6,445.9,140.3,441.2,143.3z"/>
		<path class="st0" d="M362.5,500.3c-1.3-2.8-2.6-5.4-4.1-8.5c-2.7,1.1-5.1,2.2-7.6,3c-3.4,1.2-5.2,0.2-7-3.6
			c-2-4.2-1.8-6.5,1.4-8.2c5.6-2.9,11.4-5.5,17.2-7.8c3.5-1.4,5.6-0.5,7.4,3c3.2,6.6,6.3,13.2,9.1,20c1.5,3.5,0.1,7-2,9.9
			c-7.9,10.9-18.6,16.4-32.1,15.4c-14.5-1.1-26.8-11.6-30.8-26c-3.7-13.5,1.6-28.2,13.3-36.5c7.9-5.6,16.6-7.4,26.1-5.5
			c4.8,1,6.3,3.1,5.4,7.7c-1.2,6.3-2.8,8.6-10.1,7.8c-9.2-1.1-17,4.6-19.4,13.1c-2.2,7.9,1.9,17,9.5,21.1
			C347.2,509.5,355.9,507.8,362.5,500.3z"/>
		<path class="st0" d="M41.5,423.2c3.4-2.2,6-3.8,8.9-5.7c-1.2-2.1-2.2-3.8-3.3-5.5c-2.9-4.8-2.4-6.8,2.6-9.6
			c1.3-0.7,2.7-1.1,4.5-1.9c1.4,1.5,3,2.8,4,4.4c2.8,4.1,5.5,8.3,8.1,12.6c3,4.9,2.5,7.2-2.4,10.4c-5.1,3.4-10.4,6.6-15.5,10
			c-3,2-6.2,2.4-9.5,1.1c-12.5-4.8-19.6-14.3-21.7-27.1c-2.9-17.9,8.4-34.4,25.9-39.2c21.2-5.9,43.6,12.1,42.5,33.9
			c-0.3,5.4-1.9,7.2-6.7,7.3c-6.2,0.1-9-1.8-9.3-7.1c-0.3-7.2-2.7-13-9.1-16.7c-7.4-4.3-15.9-3.1-21.9,3c-5.8,5.9-7.4,15.3-3.4,22.1
			C36.9,418.1,39.2,420.3,41.5,423.2z"/>
		<path class="st0" d="M466.3,406.4c-1.2,1.7-2.1,2.9-2.9,4.1c-3.6,5.5-7.3,11.1-11.1,17c1.9,3.3,3.7,6.6,5.6,9.8
			c1.5,2.6,2.6,5.3,0.5,7.9c-2.4,2.9-5.7,5.1-9.5,4.4c-1.9-0.4-3.8-2.6-4.9-4.4c-7.3-11.9-14.3-23.9-21.5-35.9
			c-2.3-3.9-4.6-7.7-6.9-11.5c-1.9-3.2-2.6-6.5-0.4-9.8c2.2-3.4,5.5-3.8,9.2-3.3c18.3,2.5,36.5,4.9,54.8,7.4
			c2.7,0.4,5.6,0.6,6.5,3.7c1.1,3.6,1,7.5-1.6,10.4c-1.2,1.3-3.8,1.8-5.8,1.8C474.4,407.6,470.5,406.9,466.3,406.4z M451.1,404.5
			c-4.9-0.7-8.7-2.2-13.4-1.2c2.4,4,4.3,7.1,6.8,11.2C446.9,410.9,448.8,408,451.1,404.5z"/>
		<path class="st0" d="M57.1,167.1c3.5,2.3,6.5,4.1,9.4,6.1c4.3,3,4.7,5.8,1.6,10.6c-3,4.7-5.8,5.7-10.3,2.8
			c-14.9-9.4-29.7-18.8-44.5-28.4c-4.2-2.7-4.7-5-2.2-9.2c3.9-6.6,7.8-13.2,12.4-19.3C31.2,119.3,45.3,117,56,124
			c10.7,6.9,14.1,20.6,7.9,32.1C61.9,159.7,59.6,163.1,57.1,167.1z M29.6,149.6c4.9,3.1,9.1,5.8,13.8,8.8c2.4-3.8,4.7-7.1,6.6-10.5
			c2.1-4.1,0.9-8.1-2.7-10.4c-3.8-2.4-8.1-1.8-11,2C33.9,142.5,32,145.8,29.6,149.6z"/>
		<path class="st0" d="M373.3,437.6c-0.1-3.4,3.6-7.6,7.1-9.1c3-1.2,5.1,0.1,7,2.3c11.5,13.5,23.1,27,34.4,40.7
			c3.5,4.1,2.8,6.8-1.7,10.5c-4.4,3.6-7.1,3.7-10.7-0.5c-10.3-11.9-20.4-24-30.6-36.1c-1.3-1.5-2.7-3-3.8-4.6
			C374.2,439.7,373.7,438.3,373.3,437.6z"/>
		<path class="st0" d="M473.8,263c8.2-0.1,14.6,6.2,14.5,14.4c-0.1,7.8-6.4,14.3-14.2,14.4c-8,0.1-14.6-6.5-14.6-14.5
			C459.6,269.4,465.9,263.1,473.8,263z"/>
		<path class="st0" d="M20.6,263c8.3,0.2,14.3,6.6,14.1,14.8c-0.2,7.7-7.1,14.1-14.7,13.9c-8.2-0.3-14.2-6.7-14-15
			C6.2,268.8,12.6,262.8,20.6,263z"/>
	</g>
</g>
<g id="Layer_2_00000053535658111439739370000013353639101804078766_">
	<g>
		<path class="st0" d="M188.1,353.1c0.5,2.4,0.8,4.1,1.2,5.7c2.8,12.2,5.6,24.3,8.4,36.5c1.6,7.2,0.7,8.6-6.6,10.4
			c-2.3,0.5-4.5,1.1-6.8,1.5c-4.3,0.8-6.3-0.4-7.3-4.6c-1.7-6.8-3.1-13.6-4.8-20.4c-1.8-7.2-5.9-8.4-11.3-3.1
			c-8.7,8.7-17.4,17.4-26.1,26.1c-7.4,7.4-7.9,7.4-15.5-0.1c-1.1-1.1-2.2-2.1-3.1-3.2c-3-3.5-3.1-5.7,0.2-9.1
			c6.2-6.4,12.7-12.7,19-19.1c3.6-3.7,7.3-7.3,10.9-11c4.2-4.5,3-8.7-3.1-10.2c-6.6-1.7-13.3-3-19.9-4.6c-5.7-1.4-6.9-3.2-5.7-8.9
			c0.5-2.3,1-4.5,1.6-6.8c1.4-5.7,3.3-6.9,8.9-5.7c6.3,1.4,12.6,2.9,19,4.4c6.8,1.6,13.7,3,20.4,4.7c3.5,0.9,6.1,0.2,8.6-2.4
			c16.8-16.9,33.6-33.7,50.4-50.5c4.2-4.2,4.1-6.7-0.2-10.9c-16.6-16.6-33.2-33.1-49.7-49.8c-2.9-3-5.8-3.8-9.8-2.8
			c-11.5,2.8-23,5.4-34.5,8c-2.1,0.5-4.2,1-6.4,1.3c-3.3,0.4-5.5-1.1-6.3-4.3c-0.7-2.6-1.2-5.2-1.8-7.8c-1.4-6.5-0.3-8.3,6.3-9.8
			c6-1.4,12-2.8,18-4c2.9-0.6,5.6-1.4,6.5-4.6c0.8-3.1-1.2-5-3.1-6.9c-9.3-9.3-18.6-18.6-27.8-27.9c-4.8-4.8-4.7-6.8,0-11.7
			c1.5-1.6,3-3.1,4.6-4.6c4-3.6,6.3-3.6,10.3,0.2c8.3,8.2,16.5,16.4,24.7,24.7c1.3,1.3,2.6,2.6,3.9,3.9c5.5,5.2,9.5,4.1,11.3-3.2
			c1.5-6.1,2.8-12.3,4.2-18.5c1.4-6.3,3.3-7.5,9.5-6.2c2.6,0.6,5.2,1.1,7.8,1.9c4.2,1.2,5.4,3.1,4.5,7.4c-1.9,8.8-4,17.5-6,26.3
			c-1,4.5-2,9.1-3.2,13.6c-1,3.7-0.2,6.7,2.6,9.5c16.6,16.5,33.2,33.2,49.8,49.7c4.8,4.7,6.9,4.6,11.7-0.1
			c16.5-16.5,32.9-33,49.4-49.4c3-2.9,3.8-5.8,2.8-9.8c-3.1-12.6-5.8-25.3-8.7-37.9c-1.5-6.7-0.6-8.2,6.1-9.8
			c1.9-0.5,3.9-0.9,5.8-1.3c6-1.2,7.8-0.1,9.3,5.8c1.3,5.5,2.5,11,3.8,16.5c0.3,1.3,0.6,2.6,1,3.9c1.6,5.3,5.8,6.5,9.8,2.7
			c5.4-5.2,10.6-10.5,15.9-15.8c4.7-4.7,9.3-9.5,14.1-14.1c3.6-3.4,5.8-3.4,9.5-0.1c2.2,2,4.3,4.1,6.3,6.4c3.1,3.5,3.1,5.6-0.3,9
			c-9.1,9.2-18.3,18.4-27.5,27.6c-2.3,2.3-5.6,4.2-4.5,8.2c1.1,4.3,5.1,4.3,8.4,5.1c5.8,1.4,11.7,2.6,17.5,4.1
			c5.1,1.3,6.2,3.1,5.1,8.3c-0.5,2.4-1,4.9-1.7,7.3c-1.4,5.4-3.2,6.6-8.6,5.5c-6.7-1.4-13.3-3-19.9-4.5c-6.5-1.5-13-2.9-19.4-4.5
			c-3.6-0.9-6.3-0.2-9,2.5c-16.7,16.9-33.6,33.7-50.4,50.5c-4.1,4.1-4.1,6.4,0,10.6c16.8,16.9,33.6,33.6,50.4,50.5
			c2.7,2.7,5.4,3.2,9,2.4c12.8-3,25.6-5.9,38.4-8.8c6.4-1.4,7.9-0.5,9.5,5.9c0.6,2.4,1.3,4.8,1.7,7.3c0.9,4.8-0.4,6.7-5.2,7.9
			c-7.1,1.7-14.3,3.2-21.4,5c-5.1,1.4-6.2,5.4-2.8,9.5c0.5,0.6,1.1,1.2,1.7,1.8c8.6,8.6,17.2,17.2,25.8,25.7
			c1.1,1.1,2.2,2.1,3.2,3.2c2.9,3.2,2.9,5.3,0,8.7c-1.8,2-3.7,3.9-5.6,5.7c-4.6,4.3-6.5,4.4-10.9,0c-7.1-7-14.1-14.1-21.2-21.2
			c-2.7-2.7-5.3-5.5-8.1-8.1c-4.3-4-8.6-2.8-10,2.9c-1.7,6.8-3.1,13.6-4.8,20.4c-1.3,5.4-3.1,6.6-8.5,5.5c-2.6-0.5-5.2-1.1-7.8-1.7
			c-5.1-1.3-6.3-3.2-5.1-8.3c2.6-11.5,5.2-23,7.9-34.5c2.7-11.6,2.9-9.6-5.1-17.7c-15.3-15.3-30.6-30.6-45.9-45.9
			c-5.1-5.1-6.9-5.2-12-0.1c-16.6,16.6-33.2,33.1-49.8,49.8C190,349.9,189,351.8,188.1,353.1z"/>
		<path class="st0" d="M144.8,276.7c0.4,10.2-0.6,11.6-10.5,11.5c-14.5-0.1-11.6-1.6-19.5,11c-5.7,9-11.3,18-17,27
			c-3.6,5.7-5.5,6.1-11.3,2.5c-1.8-1.1-3.7-2.3-5.5-3.4c-4.6-3-5.2-5.1-2.3-9.9c3-5,6.2-9.9,9.3-14.8c0.8-1.3,1.6-2.5,2.3-3.9
			c2.1-4.5,0.2-8-4.8-8.4c-3.8-0.3-7.6-0.1-11.5-0.1c-6.2-0.1-7.5-1.5-7.6-7.7c0-2.7-0.1-5.3,0.1-8c0.4-4.4,2-5.9,6.3-6
			c3.8-0.1,7.7,0,11.5-0.1c6.5-0.2,8.7-4.1,5.4-9.6c-3.5-5.8-7.3-11.5-10.8-17.4c-3-5-2.5-7,2.4-10.2c2.2-1.5,4.4-2.9,6.8-4.2
			c4.1-2.3,6.2-1.9,8.8,2.1c5.2,8.1,10.3,16.3,15.5,24.5c2.2,3.5,4.5,7,6.6,10.6c1.8,3.1,4.2,4.5,7.8,4.3c3.5-0.2,7-0.1,10.5,0
			c6.3,0.1,7.6,1.4,7.7,7.6C144.8,275.1,144.8,276.2,144.8,276.7z"/>
		<path class="st0" d="M236.2,162.3c2-8.1-2.1-12.5-8.8-16.3c-10-5.6-19.5-12.1-29.2-18.2c-5.5-3.5-6-5.5-2.7-10.9
			c1-1.7,2.1-3.4,3.2-5.1c3.6-5.6,5.3-6.1,10.9-2.6c5.5,3.4,11,6.9,16.5,10.3c6.1,3.7,9.9,1.6,10-5.5c0.1-3.8-0.1-7.7,0.1-11.5
			c0.2-4.2,1.7-5.6,5.9-5.9c3.3-0.2,6.7-0.2,10,0c4.1,0.3,5.6,1.8,5.9,5.9c0.2,4,0,8,0.2,12c0.2,6.5,4,8.6,9.6,5.2
			c5.6-3.3,11-6.9,16.5-10.3c5.9-3.7,7.8-3.2,11.6,2.8c0.6,1,1.2,2,1.8,3c4.8,7.7,4.6,8.7-3.2,13.7c-10.3,6.5-20.5,13.1-30.9,19.3
			c-4.1,2.4-5.9,5.4-5.5,10.1c0.3,3.5,0.1,7-0.1,10.5c-0.2,4.4-1.8,6-6.1,6.2c-3.2,0.1-6.3,0.1-9.5,0c-4.3-0.2-5.9-1.8-6.2-6.1
			c0-0.3,0-0.7,0-1C236.2,166,236.2,164.1,236.2,162.3z"/>
		<path class="st0" d="M258,392.4c-1.7,7.8,2,12.3,8.6,16c9.9,5.5,19.2,11.9,28.8,17.9c6.4,4,6.8,5.8,2.7,12.4
			c-1.1,1.8-2.3,3.7-3.5,5.5c-2.6,3.8-4.9,4.4-8.8,2c-6.1-3.7-12.1-7.6-18.2-11.3c-1.5-0.9-3.4-1.6-5.1-1.4
			c-3.1,0.3-4.3,2.8-4.4,5.8c-0.1,4.2,0,8.3-0.2,12.5c-0.2,4.6-1.6,5.9-6.1,6.2c-3.3,0.2-6.7,0.2-10,0c-4.1-0.2-5.5-1.7-5.7-6
			c-0.1-3.7,0-7.3-0.1-11c-0.2-7.5-3.9-9.6-10.2-5.7c-5.7,3.5-11.2,7.1-16.9,10.6c-4.7,2.9-6.9,2.3-9.9-2.3c-1.4-2.1-2.7-4.2-4-6.4
			c-2.7-4.7-2.2-7.1,2.4-10c10.7-6.8,21.2-13.7,32.2-20.1c5-2.9,7.2-6.4,6.6-12.1c-0.3-3-0.1-6,0-9c0.2-4.6,1.7-6.3,6.3-6.5
			c3.1-0.2,6.3-0.2,9.5,0c4.2,0.3,5.6,1.8,5.9,5.9C258.1,387.7,258,390,258,392.4z"/>
		<path class="st0" d="M362.3,266.3c7.8,1.8,12.2-2,15.9-8.6c5.7-10.1,12.2-19.8,18.4-29.6c3.5-5.5,5.4-5.8,11-2.4
			c2.1,1.3,4.3,2.6,6.3,4c3.8,2.6,4.4,4.9,2,8.9c-3.3,5.6-6.9,11-10.3,16.5c-0.6,1-1.3,2-1.8,3c-1.9,4.2,0.2,7.8,4.8,8.1
			c4,0.3,8,0,12,0.1c5.6,0.1,7,1.5,7.2,7.2c0.1,2.8,0.2,5.7,0,8.5c-0.3,4.4-1.8,6-6.2,6.1c-3.8,0.1-7.7,0-11.5,0.1
			c-6.7,0.2-8.8,4.1-5.3,10c3.3,5.6,6.9,11,10.3,16.5c3.4,5.6,3,7.5-2.4,10.9c-2,1.2-3.9,2.5-5.9,3.7c-4.5,2.7-6.8,2.3-9.6-2.1
			c-4.5-7-8.9-14.1-13.3-21.1c-2.8-4.5-5.8-9-8.4-13.5c-1.9-3.2-4.5-4.6-8.2-4.5c-4,0.1-8,0.2-12,0c-4.1-0.2-5.7-1.8-5.9-5.9
			c-0.2-3.3-0.2-6.7,0-10c0.2-4,1.9-5.7,5.9-5.9C357.7,266.2,360,266.3,362.3,266.3z"/>
		<path class="st0" d="M192.9,295.2c-0.8-0.5-2.5-1.3-3.8-2.4c-6-5.2-6.7-5.2-12.3,0c-3.8,3.5-7.4,3.2-10.5-0.9
			c-1.9-2.4-1.9-4.9,0.1-7.2c1-1.1,2.1-2.2,3-3.3c2.4-2.8,2.5-5.2,0.2-8c-0.7-0.9-1.6-1.6-2.4-2.5c-3.1-3.6-3-6.2,0.4-9.5
			c3.1-3,5.6-2.9,9.1,0.2c1,0.9,1.9,1.9,2.9,2.7c2.4,1.8,4.9,1.9,7.2-0.2c1-0.9,1.9-1.9,2.9-2.8c3.3-2.9,5.9-2.8,9.1,0.4
			c2.9,2.9,3.1,5.6,0.5,8.8c-0.7,0.9-1.7,1.6-2.4,2.5c-2.8,3.3-2.8,5.5,0,8.7c0.8,0.9,1.6,1.7,2.4,2.5c1.8,1.9,2.2,4,1.3,6.4
			C199.4,293.1,196.2,295.2,192.9,295.2z"/>
		<path class="st0" d="M237.1,359.6c-4-0.5-6.4-2.3-7.3-5c-0.6-1.7,0.4-4,0.9-5.9c0.2-0.7,1.1-1.2,1.7-1.8c4.3-4.6,4.3-6.3,0-10.9
			c-4-4.3-4.2-6.8-0.8-10.2c3.1-3.2,5.7-3.3,9.1-0.3c0.9,0.8,1.6,1.7,2.5,2.4c3.1,2.7,5.2,2.6,8.3-0.1c0.8-0.7,1.4-1.4,2.2-2.1
			c3.7-3.2,6.2-3.2,9.5,0.2c3,3.1,2.9,5.8-0.1,9.2c-0.8,0.9-1.7,1.6-2.4,2.5c-2.2,2.5-2.2,5.1-0.1,7.6c0.5,0.6,1.1,1.2,1.7,1.8
			c4.1,4.3,4.3,6.5,0.7,10.1c-3.4,3.4-5.9,3.1-10.2-0.9c-1.1-1-2.2-2.1-3.5-2.7c-2.7-1.3-4.7,0.3-6.6,2.1
			C240.5,357.2,238.5,358.6,237.1,359.6z"/>
		<path class="st0" d="M237.4,195.2c0.8,0.6,2.5,1.6,3.9,2.8c5.2,4.7,6.5,4.7,11.6-0.1c4.1-3.9,7.4-3.6,10.8,0.7
			c1.8,2.3,1.8,4.5,0.2,6.8c-0.3,0.4-0.6,0.8-1,1.1c-5.7,6.7-5.7,6.7-0.1,13c3,3.4,3,6-0.1,9.1c-3.2,3.2-5.6,3.3-9,0.3
			c-6.5-5.7-6.9-5.7-13.1-0.2c-3.4,3.1-5.9,3.1-9.1,0.1c-3.3-3.1-3.5-5.6-0.6-9.1c0.6-0.8,1.4-1.4,2-2.2c3.2-3.6,3.2-5.9-0.1-9.5
			c-0.7-0.7-1.4-1.4-2.1-2.1c-1.8-1.9-2.4-3.9-1.2-6.4C231,197,233.9,195.1,237.4,195.2z"/>
		<path class="st0" d="M300.6,277.3c-1.9-2.5-3.4-4.5-5.1-6.5c-3-3.4-3-5.9,0-9.1s5.7-3.3,9.1-0.4c0.9,0.8,1.6,1.6,2.5,2.4
			c3.2,2.6,5.2,2.6,8.3,0c0.8-0.6,1.4-1.4,2.2-2.1c4.3-3.7,9.8-2.4,11.4,3c0.4,1.5-0.2,3.6-1,5.1c-0.7,1.4-2.2,2.5-3.3,3.7
			c-2.3,2.5-2.2,5.1-0.2,7.6c0.8,1,1.8,1.9,2.7,2.9c3,3.5,3,5.8-0.3,9c-3.1,3.1-5.7,3.1-9.1,0.1c-1-0.9-1.9-1.9-2.9-2.7
			c-2.4-1.9-4.9-1.8-7.3,0.1c-1,0.8-1.9,1.9-2.9,2.7c-3.4,2.9-6.1,2.8-9.1-0.2c-3.1-3-3.1-5.7-0.2-9.1
			C297.1,281.8,298.6,279.8,300.6,277.3z"/>
	</g>
</g>
</svg>
