<?xml version="1.0" encoding="utf-8"?>
<svg version="1.1" id="Layer_1" xmlns="http://www.w3.org/2000/svg" xmlns:xlink="http://www.w3.org/1999/xlink" x="0px" y="0px"
	 viewBox="0 0 368.3 367.4" style="enable-background:new 0 0 368.3 367.4;" xml:space="preserve">
<style type="text/css">
	.st0{fill:#FFFFFF;}
</style>
<g id="Layer_2_00000155147815898862696210000000399349554616057771_">
	<g>
		<path class="st0" d="M124.6,259.7c0.5,2.4,0.8,4.1,1.2,5.7c2.8,12.2,5.6,24.3,8.4,36.5c1.6,7.2,0.7,8.6-6.6,10.4
			c-2.3,0.5-4.5,1.1-6.8,1.5c-4.3,0.8-6.3-0.4-7.3-4.6c-1.7-6.8-3.1-13.6-4.8-20.4c-1.8-7.2-5.9-8.4-11.3-3.1
			c-8.7,8.7-17.4,17.4-26.1,26.1c-7.4,7.4-7.9,7.4-15.5-0.1c-1.1-1.1-2.2-2.1-3.1-3.2c-3-3.5-3.1-5.7,0.2-9.1
			c6.2-6.4,12.7-12.7,19-19.1c3.6-3.7,7.3-7.3,10.9-11c4.2-4.5,3-8.7-3.1-10.2c-6.6-1.7-13.3-3-19.9-4.6c-5.7-1.4-6.9-3.2-5.7-8.9
			c0.5-2.3,1-4.5,1.6-6.8c1.4-5.7,3.3-6.9,8.9-5.7c6.3,1.4,12.6,2.9,19,4.4c6.8,1.6,13.7,3,20.4,4.7c3.5,0.9,6.1,0.2,8.6-2.4
			c16.8-16.9,33.6-33.7,50.4-50.5c4.2-4.2,4.1-6.7-0.2-10.9c-16.6-16.6-33.2-33.1-49.7-49.8c-2.9-3-5.8-3.8-9.8-2.8
			c-11.5,2.8-23,5.4-34.5,8c-2.1,0.5-4.2,1-6.4,1.3c-3.3,0.4-5.5-1.1-6.3-4.3c-0.7-2.6-1.2-5.2-1.8-7.8c-1.4-6.5-0.3-8.3,6.3-9.8
			c6-1.4,12-2.8,18-4c2.9-0.6,5.6-1.4,6.5-4.6c0.8-3.1-1.2-5-3.1-6.9c-9.3-9.3-18.6-18.6-27.8-27.9c-4.8-4.8-4.7-6.8,0-11.7
			c1.5-1.6,3-3.1,4.6-4.6c4-3.6,6.3-3.6,10.3,0.2c8.3,8.2,16.5,16.4,24.7,24.7c1.3,1.3,2.6,2.6,3.9,3.9c5.5,5.2,9.5,4.1,11.3-3.2
			c1.5-6.1,2.8-12.3,4.2-18.5c1.4-6.3,3.3-7.5,9.5-6.2c2.6,0.6,5.2,1.1,7.8,1.9c4.2,1.2,5.4,3.1,4.5,7.4c-1.9,8.8-4,17.5-6,26.3
			c-1,4.5-2,9.1-3.2,13.6c-1,3.7-0.2,6.7,2.6,9.5c16.6,16.5,33.2,33.2,49.8,49.7c4.8,4.7,6.9,4.6,11.7-0.1
			c16.5-16.5,32.9-33,49.4-49.4c3-2.9,3.8-5.8,2.8-9.8c-3.1-12.6-5.8-25.3-8.7-37.9c-1.5-6.7-0.6-8.2,6.1-9.8
			c1.9-0.5,3.9-0.9,5.8-1.3c6-1.2,7.8-0.1,9.3,5.8c1.3,5.5,2.5,11,3.8,16.5c0.3,1.3,0.6,2.6,1,3.9c1.6,5.3,5.8,6.5,9.8,2.7
			c5.4-5.2,10.6-10.5,15.9-15.8c4.7-4.7,9.3-9.5,14.1-14.1c3.6-3.4,5.8-3.4,9.5-0.1c2.2,2,4.3,4.1,6.3,6.4c3.1,3.5,3.1,5.6-0.3,9
			c-9.1,9.2-18.3,18.4-27.5,27.6c-2.3,2.3-5.6,4.2-4.5,8.2c1.1,4.3,5.1,4.3,8.4,5.1c5.8,1.4,11.7,2.6,17.5,4.1
			c5.1,1.3,6.2,3.1,5.1,8.3c-0.5,2.4-1,4.9-1.7,7.3c-1.4,5.4-3.2,6.6-8.6,5.5c-6.7-1.4-13.3-3-19.9-4.5c-6.5-1.5-13-2.9-19.4-4.5
			c-3.6-0.9-6.3-0.2-9,2.5c-16.7,16.9-33.6,33.7-50.4,50.5c-4.1,4.1-4.1,6.4,0,10.6c16.8,16.9,33.6,33.6,50.4,50.5
			c2.7,2.7,5.4,3.2,9,2.4c12.8-3,25.6-5.9,38.4-8.8c6.4-1.4,7.9-0.5,9.5,5.9c0.6,2.4,1.3,4.8,1.7,7.3c0.9,4.8-0.4,6.7-5.2,7.9
			c-7.1,1.7-14.3,3.2-21.4,5c-5.1,1.4-6.2,5.4-2.8,9.5c0.5,0.6,1.1,1.2,1.7,1.8c8.6,8.6,17.2,17.2,25.8,25.7
			c1.1,1.1,2.2,2.1,3.2,3.2c2.9,3.2,2.9,5.3,0,8.7c-1.8,2-3.7,3.9-5.6,5.7c-4.6,4.3-6.5,4.4-10.9,0c-7.1-7-14.1-14.1-21.2-21.2
			c-2.7-2.7-5.3-5.5-8.1-8.1c-4.3-4-8.6-2.8-10,2.9c-1.7,6.8-3.1,13.6-4.8,20.4c-1.3,5.4-3.1,6.6-8.5,5.5c-2.6-0.5-5.2-1.1-7.8-1.7
			c-5.1-1.3-6.3-3.2-5.1-8.3c2.6-11.5,5.2-23,7.9-34.5c2.7-11.6,2.9-9.6-5.1-17.7c-15.3-15.3-30.6-30.6-45.9-45.9
			c-5.1-5.1-6.9-5.2-12-0.1c-16.6,16.6-33.2,33.1-49.8,49.8C126.5,256.5,125.5,258.4,124.6,259.7z"/>
		<path class="st0" d="M81.3,183.3c0.4,10.2-0.6,11.6-10.5,11.5c-14.5-0.1-11.6-1.6-19.5,11c-5.7,9-11.3,18-17,27
			c-3.6,5.7-5.5,6.1-11.3,2.5c-1.8-1.1-3.7-2.3-5.5-3.4c-4.6-3-5.2-5.1-2.3-9.9c3-5,6.2-9.9,9.3-14.8c0.8-1.3,1.6-2.5,2.3-3.9
			c2.1-4.5,0.2-8-4.8-8.4c-3.8-0.3-7.6-0.1-11.5-0.1c-6.2-0.1-7.5-1.5-7.6-7.7c0-2.7-0.1-5.3,0.1-8c0.4-4.4,2-5.9,6.3-6
			c3.8-0.1,7.7,0,11.5-0.1c6.5-0.2,8.7-4.1,5.4-9.6c-3.5-5.8-7.3-11.5-10.8-17.4c-3-5-2.5-7,2.4-10.2c2.2-1.5,4.4-2.9,6.8-4.2
			c4.1-2.3,6.2-1.9,8.8,2.1c5.2,8.1,10.3,16.3,15.5,24.5c2.2,3.5,4.5,7,6.6,10.6c1.8,3.1,4.2,4.5,7.8,4.3c3.5-0.2,7-0.1,10.5,0
			c6.3,0.1,7.6,1.4,7.7,7.6C81.3,181.7,81.3,182.8,81.3,183.3z"/>
		<path class="st0" d="M172.7,68.9c2-8.1-2.1-12.5-8.8-16.3c-10-5.6-19.5-12.1-29.2-18.2c-5.5-3.5-6-5.5-2.7-10.9
			c1-1.7,2.1-3.4,3.2-5.1c3.6-5.6,5.3-6.1,10.9-2.6c5.5,3.4,11,6.9,16.5,10.3c6.1,3.7,9.9,1.6,10-5.5c0.1-3.8-0.1-7.7,0.1-11.5
			c0.2-4.2,1.7-5.6,5.9-5.9c3.3-0.2,6.7-0.2,10,0c4.1,0.3,5.6,1.8,5.9,5.9c0.2,4,0,8,0.2,12c0.2,6.5,4,8.6,9.6,5.2
			c5.6-3.3,11-6.9,16.5-10.3c5.9-3.7,7.8-3.2,11.6,2.8c0.6,1,1.2,2,1.8,3c4.8,7.7,4.6,8.7-3.2,13.7c-10.3,6.5-20.5,13.1-30.9,19.3
			c-4.1,2.4-5.9,5.4-5.5,10.1c0.3,3.5,0.1,7-0.1,10.5c-0.2,4.4-1.8,6-6.1,6.2c-3.2,0.1-6.3,0.1-9.5,0c-4.3-0.2-5.9-1.8-6.2-6.1
			c0-0.3,0-0.7,0-1C172.7,72.6,172.7,70.7,172.7,68.9z"/>
		<path class="st0" d="M194.5,299c-1.7,7.8,2,12.3,8.6,16c9.9,5.5,19.2,11.9,28.8,17.9c6.4,4,6.8,5.8,2.7,12.4
			c-1.1,1.8-2.3,3.7-3.5,5.5c-2.6,3.8-4.9,4.4-8.8,2c-6.1-3.7-12.1-7.6-18.2-11.3c-1.5-0.9-3.4-1.6-5.1-1.4
			c-3.1,0.3-4.3,2.8-4.4,5.8c-0.1,4.2,0,8.3-0.2,12.5c-0.2,4.6-1.6,5.9-6.1,6.2c-3.3,0.2-6.7,0.2-10,0c-4.1-0.2-5.5-1.7-5.7-6
			c-0.1-3.7,0-7.3-0.1-11c-0.2-7.5-3.9-9.6-10.2-5.7c-5.7,3.5-11.2,7.1-16.9,10.6c-4.7,2.9-6.9,2.3-9.9-2.3c-1.4-2.1-2.7-4.2-4-6.4
			c-2.7-4.7-2.2-7.1,2.4-10c10.7-6.8,21.2-13.7,32.2-20.1c5-2.9,7.2-6.4,6.6-12.1c-0.3-3-0.1-6,0-9c0.2-4.6,1.7-6.3,6.3-6.5
			c3.1-0.2,6.3-0.2,9.5,0c4.2,0.3,5.6,1.8,5.9,5.9C194.6,294.3,194.5,296.6,194.5,299z"/>
		<path class="st0" d="M298.8,172.9c7.8,1.8,12.2-2,15.9-8.6c5.7-10.1,12.2-19.8,18.4-29.6c3.5-5.5,5.4-5.8,11-2.4
			c2.1,1.3,4.3,2.6,6.3,4c3.8,2.6,4.4,4.9,2,8.9c-3.3,5.6-6.9,11-10.3,16.5c-0.6,1-1.3,2-1.8,3c-1.9,4.2,0.2,7.8,4.8,8.1
			c4,0.3,8,0,12,0.1c5.6,0.1,7,1.5,7.2,7.2c0.1,2.8,0.2,5.7,0,8.5c-0.3,4.4-1.8,6-6.2,6.1c-3.8,0.1-7.7,0-11.5,0.1
			c-6.7,0.2-8.8,4.1-5.3,10c3.3,5.6,6.9,11,10.3,16.5c3.4,5.6,3,7.5-2.4,10.9c-2,1.2-3.9,2.5-5.9,3.7c-4.5,2.7-6.8,2.3-9.6-2.1
			c-4.5-7-8.9-14.1-13.3-21.1c-2.8-4.5-5.8-9-8.4-13.5c-1.9-3.2-4.5-4.6-8.2-4.5c-4,0.1-8,0.2-12,0c-4.1-0.2-5.7-1.8-5.9-5.9
			c-0.2-3.3-0.2-6.7,0-10c0.2-4,1.9-5.7,5.9-5.9C294.2,172.8,296.5,172.9,298.8,172.9z"/>
		<path class="st0" d="M129.4,201.8c-0.8-0.5-2.5-1.3-3.8-2.4c-6-5.2-6.7-5.2-12.3,0c-3.8,3.5-7.4,3.2-10.5-0.9
			c-1.9-2.4-1.9-4.9,0.1-7.2c1-1.1,2.1-2.2,3-3.3c2.4-2.8,2.5-5.2,0.2-8c-0.7-0.9-1.6-1.6-2.4-2.5c-3.1-3.6-3-6.2,0.4-9.5
			c3.1-3,5.6-2.9,9.1,0.2c1,0.9,1.9,1.9,2.9,2.7c2.4,1.8,4.9,1.9,7.2-0.2c1-0.9,1.9-1.9,2.9-2.8c3.3-2.9,5.9-2.8,9.1,0.4
			c2.9,2.9,3.1,5.6,0.5,8.8c-0.7,0.9-1.7,1.6-2.4,2.5c-2.8,3.3-2.8,5.5,0,8.7c0.8,0.9,1.6,1.7,2.4,2.5c1.8,1.9,2.2,4,1.3,6.4
			C135.9,199.7,132.7,201.8,129.4,201.8z"/>
		<path class="st0" d="M173.6,266.2c-4-0.5-6.4-2.3-7.3-5c-0.6-1.7,0.4-4,0.9-5.9c0.2-0.7,1.1-1.2,1.7-1.8c4.3-4.6,4.3-6.3,0-10.9
			c-4-4.3-4.2-6.8-0.8-10.2c3.1-3.2,5.7-3.3,9.1-0.3c0.9,0.8,1.6,1.7,2.5,2.4c3.1,2.7,5.2,2.6,8.3-0.1c0.8-0.7,1.4-1.4,2.2-2.1
			c3.7-3.2,6.2-3.2,9.5,0.2c3,3.1,2.9,5.8-0.1,9.2c-0.8,0.9-1.7,1.6-2.4,2.5c-2.2,2.5-2.2,5.1-0.1,7.6c0.5,0.6,1.1,1.2,1.7,1.8
			c4.1,4.3,4.3,6.5,0.7,10.1c-3.4,3.4-5.9,3.1-10.2-0.9c-1.1-1-2.2-2.1-3.5-2.7c-2.7-1.3-4.7,0.3-6.6,2.1
			C177,263.8,175,265.2,173.6,266.2z"/>
		<path class="st0" d="M173.9,101.8c0.8,0.6,2.5,1.6,3.9,2.8c5.2,4.7,6.5,4.7,11.6-0.1c4.1-3.9,7.4-3.6,10.8,0.7
			c1.8,2.3,1.8,4.5,0.2,6.8c-0.3,0.4-0.6,0.8-1,1.1c-5.7,6.7-5.7,6.7-0.1,13c3,3.4,3,6-0.1,9.1c-3.2,3.2-5.6,3.3-9,0.3
			c-6.5-5.7-6.9-5.7-13.1-0.2c-3.4,3.1-5.9,3.1-9.1,0.1c-3.3-3.1-3.5-5.6-0.6-9.1c0.6-0.8,1.4-1.4,2-2.2c3.2-3.6,3.2-5.9-0.1-9.5
			c-0.7-0.7-1.4-1.4-2.1-2.1c-1.8-1.9-2.4-3.9-1.2-6.4C167.5,103.6,170.4,101.7,173.9,101.8z"/>
		<path class="st0" d="M237.1,183.9c-1.9-2.5-3.4-4.5-5.1-6.5c-3-3.4-3-5.9,0-9.1c3-3.2,5.7-3.3,9.1-0.4c0.9,0.8,1.6,1.6,2.5,2.4
			c3.2,2.6,5.2,2.6,8.3,0c0.8-0.6,1.4-1.4,2.2-2.1c4.3-3.7,9.8-2.4,11.4,3c0.4,1.5-0.2,3.6-1,5.1c-0.7,1.4-2.2,2.5-3.3,3.7
			c-2.3,2.5-2.2,5.1-0.2,7.6c0.8,1,1.8,1.9,2.7,2.9c3,3.5,3,5.8-0.3,9c-3.1,3.1-5.7,3.1-9.1,0.1c-1-0.9-1.9-1.9-2.9-2.7
			c-2.4-1.9-4.9-1.8-7.3,0.1c-1,0.8-1.9,1.9-2.9,2.7c-3.4,2.9-6.1,2.8-9.1-0.2c-3.1-3-3.1-5.7-0.2-9.1
			C233.6,188.4,235.1,186.4,237.1,183.9z"/>
	</g>
</g>
</svg>
