<?xml version="1.0" encoding="utf-8"?>
<svg version="1.1" id="Layer_1" xmlns="http://www.w3.org/2000/svg" xmlns:xlink="http://www.w3.org/1999/xlink" x="0px" y="0px"
	 viewBox="0 0 493.4 545.8" style="enable-background:new 0 0 493.4 545.8;" xml:space="preserve">
<style type="text/css">
	.st0{fill:#FFFFFF;}
</style>
<g id="Layer_1_00000001639043319368516610000017690536657064181902_">
	<g>
		<path class="st0" d="M191.3,46.7c0.8-4.8,1.7-9.7,2.5-14.5c0.8-4.6,1.4-9.2,2.2-13.8c0.9-5.1,3.2-7.7,7.2-8.3c3.9-0.6,6.6,1,9,5.5
			c3.7,7.1,7.4,14.2,11.1,21.2c0.8,1.4,1.6,2.8,3.4,4.2c0.4-1.6,0.8-3.3,1.1-4.9c1.4-8.5,2.7-17.1,4.1-25.6c0.5-2.9,1.3-5.7,4.7-6.3
			c3.7-0.6,7.7-0.2,10,2.9c1.2,1.7,1.1,4.8,0.8,7.1c-1.8,11.5-4,22.9-6,34.4c-0.9,5.4-1.8,10.8-2.8,16.2c-0.9,4.9-3.5,7.9-7.3,8.4
			c-3.5,0.5-6.6-1.4-9-5.8c-3.8-7-7.5-14.1-11.2-21.2c-0.7-1.4-1.6-2.7-2.5-4.1c-0.3,0.1-0.7,0.1-1,0.2c-1.3,7.5-2.6,15-3.9,22.4
			c-0.4,2.5-0.7,5-1.3,7.4c-0.9,3.4-2.6,6.1-6.5,6.6c-3.7,0.5-6.6-0.9-8.4-4.1c-8.8-16.2-17.6-32.4-26.2-48.8
			c-2.2-4.1-0.7-6.9,4.2-9.4c5-2.6,7.5-2.1,9.9,2.4c4.2,7.8,8.2,15.6,12.2,23.4c0.8,1.5,1.6,2.9,2.4,4.3
			C190.5,46.7,190.9,46.7,191.3,46.7z"/>
		<path class="st0" d="M276.5,72.3c0.4-2.6,0.4-5,1-7.2c4.6-16.1,9.3-32.2,14-48.3c1.7-5.9,4-7.1,10-5.5c5.8,1.6,11.5,3.3,17.2,5.1
			c16.4,5.4,26.2,22.5,22.3,39c-4,17-20.1,28.6-37.2,25.8c-7.8-1.3-15.4-4.1-23-6.4C279.5,74.6,278.3,73.5,276.5,72.3z M295,62.5
			c3.7,1.1,6.8,2.2,10,2.9c6.3,1.4,14.2-1.6,17.5-6.9c4-6.2,4.5-12.7,0.6-19.2c-4.1-6.9-11-8.4-18.6-9.8
			C301.4,40.5,298.3,51.2,295,62.5z"/>
		<path class="st0" d="M179.9,534.4c-18.4,0.1-33.3-14.7-33.5-33.2c-0.2-19.1,15.4-35.6,33.7-35.6c18.1,0,33.1,14.8,33.3,32.9
			C213.6,517.6,198,534.3,179.9,534.4z M197.1,498.9c0-9.6-7.6-17.4-16.8-17.4c-9.5,0-17.7,8.8-17.7,19.2
			c-0.1,9.6,7.4,17.5,16.6,17.6C189.1,518.4,197.2,509.7,197.1,498.9z"/>
		<path class="st0" d="M107,441.8c-2,2.7-3.6,4.7-5.5,7.2c2.7,2.2,5,4.1,7.5,6.1c2.1,1.6,4.2,3.3,6.4,4.8c7.3,4.9,4.4,9.7-1,14.4
			c-2.2,1.9-4.7,1.3-6.9-0.3c-3.3-2.5-6.6-5-10-7.5c-1.8-1.4-3.7-2.7-6-4.3c-1.9,2.5-3.6,4.7-5.5,7.2c1.9,1.5,3.4,2.8,4.9,4
			c6.1,4.7,12.2,9.2,18.2,14c3.9,3.1,4.1,6,0.9,10.3c-3.6,4.8-6.1,5.6-10.4,2.5c-10.4-7.7-20.7-15.6-30.9-23.6c-3.8-3-4-5.6-1.1-9.5
			c10.6-14.1,21.3-28.1,32.1-42c3.2-4.2,5.7-4.6,9.8-1.5c10.4,7.7,20.7,15.6,30.9,23.6c3.7,2.9,3.7,5.7,0.6,9.9
			c-3.3,4.5-6.1,5.4-10,2.7c-5.8-4.1-11.4-8.6-17.1-12.9C111.7,445.2,109.6,443.7,107,441.8z"/>
		<path class="st0" d="M143.1,85.8c-0.5,19.3-14.7,32.8-33.8,32.2c-19.2-0.6-34-17-33.4-36.8c0.5-17.6,15.8-31.7,33.6-31.1
			C128.4,50.7,143.6,67,143.1,85.8z M110.4,101.9c9.5,0.1,16.6-6.9,16.8-16.5c0.2-10.2-8.6-19.3-18.8-19.3
			c-9.5,0-16.5,7.2-16.5,16.8C91.9,93.2,100.4,101.9,110.4,101.9z"/>
		<path class="st0" d="M391.6,68.8c-1.9,2.5-3.5,4.6-5.5,7.2c2.6,2.1,5,4,7.4,5.9c2.9,2.3,5.8,4.4,8.7,6.7c2.6,2.1,2.9,4.7,1.2,7.5
			c-0.7,1.1-1.5,2.2-2.3,3.2c-3.4,3.7-5.3,4-9.5,1.1c-3.8-2.7-7.4-5.6-11.1-8.4c-1.3-1-2.7-1.9-4.3-3c-1.9,2.5-3.5,4.7-5.5,7.3
			c6.9,5.3,13.4,10.4,20,15.4c0.7,0.5,1.4,1,2,1.5c5.2,4.1,5.5,7.1,1.4,12.1c-3.4,4-6,4.5-10.3,1.3c-9.8-7.4-19.7-14.8-29.3-22.4
			c-5-3.9-5.2-6.4-1.5-11.4c10.2-13.5,20.5-27,30.9-40.4c3.7-4.8,6.1-5.2,10.9-1.6c10,7.4,19.9,15,29.7,22.7
			c4.2,3.2,4.3,6.2,0.9,10.7c-3.4,4.5-6.1,5.2-10.5,2c-6.2-4.5-12.2-9.2-18.3-13.8C395.2,71.3,393.7,70.3,391.6,68.8z"/>
		<path class="st0" d="M270.9,523c-4.7,0.4-9.1,0.9-14.3,1.3c0.2,3.6,0.4,6.8,0.6,10.1c0.2,2.9,0.7,6.4-2.5,7.3
			c-3.3,1-7.2,1.1-10.5,0.2c-1.4-0.4-2.6-4-2.8-6.3c-0.9-8.9-1.5-17.9-2.2-26.8c-0.6-8-1.2-15.9-1.8-23.9c-0.4-5.7,1-7.8,6.6-8.4
			c7.3-0.8,14.6-1.5,21.9-1.6c9.3-0.1,16.9,3.8,21.4,12.1c4.4,8.1,4.5,16.5-0.3,24.7c-0.6,1-1.1,2-1.9,3.4c2.2,4.3,4.5,8.7,6.8,13.1
			c3.3,6.6,0,12.2-7.5,12.7c-3.2,0.2-4.8-1.8-6.1-4.2C275.8,532.3,273.4,527.8,270.9,523z M255.2,508.3c4.8-0.5,9.1-0.6,13.3-1.4
			c3.9-0.8,6.1-4.3,6-8.1c-0.2-4-3-7.4-7.2-7.6c-4.2-0.2-8.5,0.4-13.3,0.6C254.4,497.6,254.8,502.6,255.2,508.3z"/>
		<path class="st0" d="M434.4,161.6c-1.6-2.6-3-4.8-4.4-7.1c-1-1.5-2-3-3.4-5c-3.2,1.9-6.3,3.7-9.3,5.6c-2.4,1.4-4.9,2.7-7.4,0.7
			c-3-2.3-5.3-5.5-4.9-9.3c0.2-1.8,2.4-3.9,4.2-5.1c10.3-6.8,20.7-13.3,31-19.9c3.8-2.4,7.5-4.9,11.4-7.2c6.1-3.8,8.1-3.3,12.1,2.9
			c3.4,5.3,6.9,10.6,10.1,16c4.9,8.4,5.4,17.2,0.2,25.5c-5,8-12.6,12-22.3,11.7c-1.1,0-2.3,0-3.9,0c-2.7,3.9-5.4,8.1-8.3,12.1
			c-4.2,5.9-11.7,5.3-15-1.2c-1.3-2.6-0.2-4.8,1.2-7C428.6,170.1,431.5,165.9,434.4,161.6z M440.2,140.7c2.6,3.9,4.6,7.5,7.1,10.7
			c2.9,3.6,6.9,4,10.6,1.6c3.4-2.2,4.8-6.1,2.9-10c-1.9-3.8-4.4-7.2-6.8-11.1C449.2,135,444.9,137.7,440.2,140.7z"/>
		<path class="st0" d="M361.5,497.7c-1.3-2.8-2.6-5.4-4.1-8.5c-2.7,1.1-5.1,2.2-7.6,3c-3.4,1.2-5.2,0.2-7-3.6
			c-2-4.2-1.8-6.5,1.4-8.2c5.6-2.9,11.4-5.5,17.2-7.8c3.5-1.4,5.6-0.5,7.4,3c3.2,6.6,6.3,13.2,9.1,20c1.5,3.5,0.1,7-2,9.9
			c-7.9,10.9-18.6,16.4-32.1,15.4c-14.5-1.1-26.8-11.6-30.8-26c-3.7-13.5,1.6-28.2,13.3-36.5c7.9-5.6,16.6-7.4,26.1-5.5
			c4.8,1,6.3,3.1,5.4,7.7c-1.2,6.3-2.8,8.6-10.1,7.8c-9.2-1.1-17,4.6-19.4,13.1c-2.2,7.9,1.9,17,9.5,21.1
			C346.2,506.9,354.9,505.2,361.5,497.7z"/>
		<path class="st0" d="M40.5,420.6c3.4-2.2,6-3.8,8.9-5.7c-1.2-2.1-2.2-3.8-3.3-5.5c-2.9-4.8-2.4-6.8,2.6-9.6
			c1.3-0.7,2.7-1.1,4.5-1.9c1.4,1.5,3,2.8,4,4.4c2.8,4.1,5.5,8.3,8.1,12.6c3,4.9,2.5,7.2-2.4,10.4c-5.1,3.4-10.4,6.6-15.5,10
			c-3,2-6.2,2.4-9.5,1.1c-12.5-4.8-19.6-14.3-21.7-27.1c-2.9-17.9,8.4-34.4,25.9-39.2c21.2-5.9,43.6,12.1,42.5,33.9
			c-0.3,5.4-1.9,7.2-6.7,7.3c-6.2,0.1-9-1.8-9.3-7.1c-0.3-7.2-2.7-13-9.1-16.7c-7.4-4.3-15.9-3.1-21.9,3c-5.8,5.9-7.4,15.3-3.4,22.1
			C35.9,415.5,38.2,417.7,40.5,420.6z"/>
		<path class="st0" d="M465.3,403.8c-1.2,1.7-2.1,2.9-2.9,4.1c-3.6,5.5-7.3,11.1-11.1,17c1.9,3.3,3.7,6.6,5.6,9.8
			c1.5,2.6,2.6,5.3,0.5,7.9c-2.4,2.9-5.7,5.1-9.5,4.4c-1.9-0.4-3.8-2.6-4.9-4.4c-7.3-11.9-14.3-23.9-21.5-35.9
			c-2.3-3.9-4.6-7.7-6.9-11.5c-1.9-3.2-2.6-6.5-0.4-9.8c2.2-3.4,5.5-3.8,9.2-3.3c18.3,2.5,36.5,4.9,54.8,7.4
			c2.7,0.4,5.6,0.6,6.5,3.7c1.1,3.6,1,7.5-1.6,10.4c-1.2,1.3-3.8,1.8-5.8,1.8C473.4,405,469.5,404.3,465.3,403.8z M450.1,401.9
			c-4.9-0.7-8.7-2.2-13.4-1.2c2.4,4,4.3,7.1,6.8,11.2C445.9,408.3,447.8,405.4,450.1,401.9z"/>
		<path class="st0" d="M56.1,164.5c3.5,2.3,6.5,4.1,9.4,6.1c4.3,3,4.7,5.8,1.6,10.6c-3,4.7-5.8,5.7-10.3,2.8
			c-14.9-9.4-29.7-18.8-44.5-28.4c-4.2-2.7-4.7-5-2.2-9.2c3.9-6.6,7.8-13.2,12.4-19.3c7.7-10.4,21.8-12.7,32.5-5.7
			c10.7,6.9,14.1,20.6,7.9,32.1C60.9,157.1,58.6,160.5,56.1,164.5z M28.6,147c4.9,3.1,9.1,5.8,13.8,8.8c2.4-3.8,4.7-7.1,6.6-10.5
			c2.1-4.1,0.9-8.1-2.7-10.4c-3.8-2.4-8.1-1.8-11,2C32.9,139.9,31,143.2,28.6,147z"/>
		<path class="st0" d="M372.3,435c-0.1-3.4,3.6-7.6,7.1-9.1c3-1.2,5.1,0.1,7,2.3c11.5,13.5,23.1,27,34.4,40.7
			c3.5,4.1,2.8,6.8-1.7,10.5c-4.4,3.6-7.1,3.7-10.7-0.5c-10.3-11.9-20.4-24-30.6-36.1c-1.3-1.5-2.7-3-3.8-4.6
			C373.2,437.1,372.7,435.7,372.3,435z"/>
		<path class="st0" d="M472.8,260.4c8.2-0.1,14.6,6.2,14.5,14.4c-0.1,7.8-6.4,14.3-14.2,14.4c-8,0.1-14.6-6.5-14.6-14.5
			C458.6,266.8,464.9,260.5,472.8,260.4z"/>
		<path class="st0" d="M19.6,260.4c8.3,0.2,14.3,6.6,14.1,14.8c-0.2,7.7-7.1,14.1-14.7,13.9c-8.2-0.3-14.2-6.7-14-15
			C5.2,266.2,11.6,260.2,19.6,260.4z"/>
	</g>
</g>
</svg>
